<svg contentstyletype="text/css" height="202px" preserveAspectRatio="none"
    style="width:419px;height:202px;background:#FFFFFF;" viewBox="0 0 419 202" width="419px" zoomAndPan="magnify">
    <defs></defs>
    <g>
        <rect fill="#808080" height="11.6406" style="stroke:none;stroke-width:1.0;" width="151" x="260" y="5"></rect>
        <text fill="#FFFFFF" font-family="sans-serif" font-size="10" lengthAdjust="spacing" textLength="151" x="260"
            y="14.2822">Alice@aol.fr | [Se déconnecter]</text><text fill="#000000" font-family="sans-serif"
            font-size="12" font-weight="bold" lengthAdjust="spacing" textLength="182" x="7" y="44.748">Ceux dont je suis
            membre</text>
        <ellipse cx="12.5" cy="56.0469" fill="#000000" rx="2.5" ry="2.5" style="stroke:#000000;stroke-width:0.0;">
        </ellipse><text fill="#000000" font-family="sans-serif" font-size="12" lengthAdjust="spacing" textLength="53"
            x="19" y="60.7168">Ensimag</text>
        <ellipse cx="12.5" cy="72.0156" fill="#000000" rx="2.5" ry="2.5" style="stroke:#000000;stroke-width:0.0;">
        </ellipse><text fill="#000000" font-family="sans-serif" font-size="12" lengthAdjust="spacing" textLength="81"
            x="19" y="76.6855">Grenoble INP</text>
        <ellipse cx="12.5" cy="87.9844" fill="#000000" rx="2.5" ry="2.5" style="stroke:#000000;stroke-width:0.0;">
        </ellipse><text fill="#000000" font-family="sans-serif" font-size="12" lengthAdjust="spacing" textLength="77"
            x="19" y="92.6543">Club gaming</text>
        <line style="stroke:#AAAAAA;stroke-width:1.0;" x1="7" x2="190" y1="100.9844" y2="100.9844"></line><text
            fill="#000000" font-family="sans-serif" font-size="12" font-weight="bold" lengthAdjust="spacing"
            textLength="153" x="7" y="116.623">Ceux que j'administre</text>
        <ellipse cx="12.5" cy="127.9219" fill="#000000" rx="2.5" ry="2.5" style="stroke:#000000;stroke-width:0.0;">
        </ellipse><text fill="#000000" font-family="sans-serif" font-size="12" font-weight="bold" lengthAdjust="spacing"
            textLength="88" x="19" y="132.5918">Club Gaming</text>
        <ellipse cx="12.5" cy="143.8906" fill="#000000" rx="2.5" ry="2.5" style="stroke:#000000;stroke-width:0.0;">
        </ellipse><text fill="#000000" font-family="sans-serif" font-size="12" lengthAdjust="spacing" textLength="51"
            x="19" y="148.5605">Running</text><text fill="#000000" font-family="sans-serif" font-size="12"
            font-style="italic" lengthAdjust="spacing" textLength="154" x="10" y="164.5293">nom du nouveau groupe</text>
        <line style="stroke:#000000;stroke-width:1.0;" x1="8" x2="179" y1="167.3594" y2="167.3594"></line>
        <line style="stroke:#000000;stroke-width:1.0;" x1="8" x2="8" y1="164.3594" y2="166.3594"></line>
        <line style="stroke:#000000;stroke-width:1.0;" x1="179" x2="179" y1="164.3594" y2="166.3594"></line>
        <rect fill="#EEEEEE" height="17.9688" rx="5" ry="5" style="stroke:#000000;stroke-width:2.5;" width="44" x="9.5"
            y="173.8594"></rect><text fill="#000000" font-family="sans-serif" font-size="12" lengthAdjust="spacing"
            textLength="34" x="14.5" y="186.998">Créer</text>
        <line style="stroke:#000000;stroke-width:1.0;" x1="6" x2="190" y1="25.625" y2="25.625"></line>
        <line style="stroke:#000000;stroke-width:1.0;" x1="6" x2="190" y1="195.3281" y2="195.3281"></line>
        <line style="stroke:#000000;stroke-width:1.0;" x1="6" x2="6" y1="25.625" y2="48.5781"></line>
        <line style="stroke:#000000;stroke-width:1.0;" x1="190" x2="190" y1="25.625" y2="48.5781"></line>
        <line style="stroke:#000000;stroke-width:1.0;" x1="6" x2="6" y1="170.3594" y2="195.3281"></line>
        <line style="stroke:#000000;stroke-width:1.0;" x1="190" x2="190" y1="170.3594" y2="195.3281"></line>
        <line style="stroke:#000000;stroke-width:1.0;" x1="6" x2="6" y1="136.4219" y2="152.3906"></line>
        <line style="stroke:#000000;stroke-width:1.0;" x1="190" x2="190" y1="136.4219" y2="152.3906"></line>
        <line style="stroke:#000000;stroke-width:1.0;" x1="6" x2="6" y1="104.4844" y2="120.4531"></line>
        <line style="stroke:#000000;stroke-width:1.0;" x1="190" x2="190" y1="104.4844" y2="120.4531"></line>
        <line style="stroke:#000000;stroke-width:1.0;" x1="6" x2="6" y1="80.5156" y2="96.4844"></line>
        <line style="stroke:#000000;stroke-width:1.0;" x1="190" x2="190" y1="80.5156" y2="96.4844"></line>
        <line style="stroke:#000000;stroke-width:1.0;" x1="6" x2="6" y1="48.5781" y2="64.5469"></line>
        <line style="stroke:#000000;stroke-width:1.0;" x1="190" x2="190" y1="48.5781" y2="64.5469"></line>
        <line style="stroke:#000000;stroke-width:1.0;" x1="6" x2="6" y1="152.3906" y2="170.3594"></line>
        <line style="stroke:#000000;stroke-width:1.0;" x1="190" x2="190" y1="152.3906" y2="170.3594"></line>
        <line style="stroke:#000000;stroke-width:1.0;" x1="6" x2="6" y1="120.4531" y2="136.4219"></line>
        <line style="stroke:#000000;stroke-width:1.0;" x1="190" x2="190" y1="120.4531" y2="136.4219"></line>
        <line style="stroke:#000000;stroke-width:1.0;" x1="6" x2="6" y1="96.4844" y2="104.4844"></line>
        <line style="stroke:#000000;stroke-width:1.0;" x1="190" x2="190" y1="96.4844" y2="104.4844"></line>
        <line style="stroke:#000000;stroke-width:1.0;" x1="6" x2="6" y1="64.5469" y2="80.5156"></line>
        <line style="stroke:#000000;stroke-width:1.0;" x1="190" x2="190" y1="64.5469" y2="80.5156"></line>
        <rect fill="#FFFFFF" height="13.9688" style="stroke:#FFFFFF;stroke-width:1.0;" width="81" x="12" y="18.6406">
        </rect><text fill="#000000" font-family="sans-serif" font-size="12" lengthAdjust="spacing" textLength="81"
            x="12" y="29.7793">Mes groupes</text><text fill="#000000" font-family="sans-serif" font-size="12"
            lengthAdjust="spacing" textLength="120" x="193" y="44.748">Ajouter un membre</text>
        <rect fill="#EEEEEE" height="16.9688" style="stroke:#000000;stroke-width:1.0;" width="119" x="193" y="49.5781">
        </rect><text fill="#000000" font-family="sans-serif" font-size="12" lengthAdjust="spacing" textLength="100"
            x="195" y="62.7168">Bob@gmail.com</text>
        <line style="stroke:#000000;stroke-width:1.0;" x1="301" x2="301" y1="49.5781" y2="66.5469"></line>
        <polygon fill="#000000" points="304,55.5781,310,55.5781,307,61.5469" style="stroke:#000000;stroke-width:1.0;">
        </polygon>
        <rect fill="#EEEEEE" height="17.9688" rx="5" ry="5" style="stroke:#000000;stroke-width:2.5;" width="60"
            x="331.5" y="52.0781"></rect><text fill="#000000" font-family="sans-serif" font-size="12"
            lengthAdjust="spacing" textLength="45" x="339" y="65.2168">Ajouter</text>
        <line style="stroke:#AAAAAA;stroke-width:1.0;" x1="193" x2="328" y1="78.0469" y2="78.0469"></line>
        <line style="stroke:#AAAAAA;stroke-width:1.0;" x1="329" x2="411" y1="78.0469" y2="78.0469"></line><text
            fill="#000000" font-family="sans-serif" font-size="12" font-weight="bold" lengthAdjust="spacing"
            textLength="134" x="193" y="93.6855">Liste des membres</text>
        <line style="stroke:#AAAAAA;stroke-width:1.0;" x1="193" x2="328" y1="102.0156" y2="102.0156"></line>
        <line style="stroke:#AAAAAA;stroke-width:1.0;" x1="329" x2="411" y1="102.0156" y2="102.0156"></line><text
            fill="#000000" font-family="sans-serif" font-size="12" lengthAdjust="spacing" textLength="74" x="193"
            y="117.6543">Alice@aol.fr</text>
        <rect fill="#EEEEEE" height="17.9688" rx="5" ry="5" style="stroke:#000000;stroke-width:2.5;" width="76"
            x="331.5" y="109.0156"></rect><text fill="#000000" font-family="sans-serif" font-size="12"
            lengthAdjust="spacing" textLength="64" x="337.5" y="122.1543">Supprimer</text><text fill="#000000"
            font-family="sans-serif" font-size="12" lengthAdjust="spacing" textLength="107" x="193"
            y="142.623">Asimov@yahoo.fr</text>
        <rect fill="#EEEEEE" height="17.9688" rx="5" ry="5" style="stroke:#000000;stroke-width:2.5;" width="76"
            x="331.5" y="133.9844"></rect><text fill="#000000" font-family="sans-serif" font-size="12"
            lengthAdjust="spacing" textLength="64" x="337.5" y="147.123">Supprimer</text><text fill="#000000"
            font-family="sans-serif" font-size="12" lengthAdjust="spacing" textLength="116" x="193"
            y="167.5918">Charlie@hack.com</text>
        <rect fill="#EEEEEE" height="17.9688" rx="5" ry="5" style="stroke:#000000;stroke-width:2.5;" width="76"
            x="331.5" y="158.9531"></rect><text fill="#000000" font-family="sans-serif" font-size="12"
            lengthAdjust="spacing" textLength="64" x="337.5" y="172.0918">Supprimer</text>
        <line style="stroke:#000000;stroke-width:1.0;" x1="192" x2="328" y1="25.625" y2="25.625"></line>
        <line style="stroke:#000000;stroke-width:1.0;" x1="328" x2="411" y1="25.625" y2="25.625"></line>
        <line style="stroke:#000000;stroke-width:1.0;" x1="192" x2="328" y1="180.4219" y2="180.4219"></line>
        <line style="stroke:#000000;stroke-width:1.0;" x1="328" x2="411" y1="180.4219" y2="180.4219"></line>
        <line style="stroke:#000000;stroke-width:1.0;" x1="192" x2="192" y1="25.625" y2="48.5781"></line>
        <line style="stroke:#000000;stroke-width:1.0;" x1="411" x2="411" y1="73.5469" y2="81.5469"></line>
        <line style="stroke:#000000;stroke-width:1.0;" x1="411" x2="411" y1="25.625" y2="48.5781"></line>
        <line style="stroke:#000000;stroke-width:1.0;" x1="192" x2="192" y1="155.4531" y2="180.4219"></line>
        <line style="stroke:#000000;stroke-width:1.0;" x1="192" x2="192" y1="105.5156" y2="130.4844"></line>
        <line style="stroke:#000000;stroke-width:1.0;" x1="411" x2="411" y1="155.4531" y2="180.4219"></line>
        <line style="stroke:#000000;stroke-width:1.0;" x1="192" x2="192" y1="81.5469" y2="97.5156"></line>
        <line style="stroke:#000000;stroke-width:1.0;" x1="411" x2="411" y1="105.5156" y2="130.4844"></line>
        <line style="stroke:#000000;stroke-width:1.0;" x1="192" x2="192" y1="48.5781" y2="73.5469"></line>
        <line style="stroke:#000000;stroke-width:1.0;" x1="411" x2="411" y1="81.5469" y2="97.5156"></line>
        <line style="stroke:#000000;stroke-width:1.0;" x1="411" x2="411" y1="48.5781" y2="73.5469"></line>
        <line style="stroke:#000000;stroke-width:1.0;" x1="192" x2="192" y1="130.4844" y2="155.4531"></line>
        <line style="stroke:#000000;stroke-width:1.0;" x1="192" x2="192" y1="97.5156" y2="105.5156"></line>
        <line style="stroke:#000000;stroke-width:1.0;" x1="411" x2="411" y1="130.4844" y2="155.4531"></line>
        <line style="stroke:#000000;stroke-width:1.0;" x1="192" x2="192" y1="73.5469" y2="81.5469"></line>
        <line style="stroke:#000000;stroke-width:1.0;" x1="411" x2="411" y1="97.5156" y2="105.5156"></line>
        <rect fill="#FFFFFF" height="13.9688" style="stroke:#FFFFFF;stroke-width:1.0;" width="194" x="198" y="18.6406">
        </rect><text fill="#000000" font-family="sans-serif" font-size="12" lengthAdjust="spacing" textLength="90"
            x="198" y="29.7793">Administration</text><text fill="#000000" font-family="sans-serif" font-size="12"
            font-weight="bold" lengthAdjust="spacing" textLength="100" x="292" y="29.7793">"Club Gaming"</text>
        <!--SRC=[RPBTRjf048Nlzob6t3In10s4LYb2oE0KL0e9AYGtKP3MziHUQk_I_Q51m0FbEV9YdUL7RThQD-kPiv_FdDtGMAwjuOLbRMFN1NPOZZn53Hi6CCDdsor49h54QK6BBBTKxl7a-q0h9zD85Kf3flcQodqbxQ7mCnSMsOwrtxzb4Yl1aAkYzgHX2mzJXFJr9L5IOc9HFmBRiCryZ8QGoYtHi228q3r3IcXO81Wd39HOnXg3W0NmMHfHyenM0urInGN2bvi9VKQ5Yo7ZfP0Pgz9p0lrm28jtFAM6CFP8QSUTlNvmq0VmpKdfLvMsw4XLGkf0AhT2xex6Ai3W8TAlBsIQxRPakdj2SYkKzCZA7ymAnTDTA4T3WfF72OW1yvwAmwpaegWbgfpxK8wwH-fwvzkzVO0W616U0iDJ0eRClzNyawzRBhKe3x0kHQLMuPhdIlsl7-LS5mB3d4xNc_bBiACtH9dkxmgR55pQk_48LgYD7xXUQrmqBclrnbbV2xXDB3Gke7xPQdvgVMZ2O3m3tpzdPuF928noEg5HV5uYTZwnSpRaA-wJj_I_5jmkKGwllvuATD8hePNqzv0DxyU_1H-RrPwmC4LDLk1-pAxnYRl2qev4fPHz2-vc_UeL6t6PEPuH6oMBwFPQlQRUz1S0]-->
    </g>
</svg>