<svg contentstyletype="text/css" height="214px" preserveAspectRatio="none"
    style="width:280px;height:214px;background:#FFFFFF;" viewBox="0 0 280 214" width="280px" zoomAndPan="magnify">
    <defs></defs>
    <g><text fill="#000000" font-family="sans-serif" font-size="12" lengthAdjust="spacing" textLength="33" x="7"
            y="32.1074">Email</text><text fill="#000000" font-family="sans-serif" font-size="12" lengthAdjust="spacing"
            textLength="33" x="97" y="32.1074">Email</text>
        <line style="stroke:#000000;stroke-width:1.0;" x1="95" x2="162" y1="34.9375" y2="34.9375"></line>
        <line style="stroke:#000000;stroke-width:1.0;" x1="95" x2="95" y1="31.9375" y2="33.9375"></line>
        <line style="stroke:#000000;stroke-width:1.0;" x1="162" x2="162" y1="31.9375" y2="33.9375"></line><text
            fill="#000000" font-family="sans-serif" font-size="12" lengthAdjust="spacing" textLength="85" x="7"
            y="50.0762">Mot de Passe</text><text fill="#000000" font-family="sans-serif" font-size="12"
            lengthAdjust="spacing" textLength="24" x="97" y="50.0762">****</text>
        <line style="stroke:#000000;stroke-width:1.0;" x1="95" x2="170" y1="52.9063" y2="52.9063"></line>
        <line style="stroke:#000000;stroke-width:1.0;" x1="95" x2="95" y1="49.9063" y2="51.9063"></line>
        <line style="stroke:#000000;stroke-width:1.0;" x1="170" x2="170" y1="49.9063" y2="51.9063"></line><text
            fill="#000000" font-family="sans-serif" font-size="12" lengthAdjust="spacing" textLength="4" x="7"
            y="68.0449">-</text>
        <rect fill="#EEEEEE" height="17.9688" rx="5" ry="5" style="stroke:#000000;stroke-width:2.5;" width="60" x="96.5"
            y="59.4063"></rect><text fill="#000000" font-family="sans-serif" font-size="12" lengthAdjust="spacing"
            textLength="16" x="118.5" y="72.5449">OK</text>
        <line style="stroke:#000000;stroke-width:1.0;" x1="6" x2="93" y1="12.9844" y2="12.9844"></line>
        <line style="stroke:#000000;stroke-width:1.0;" x1="93" x2="173" y1="12.9844" y2="12.9844"></line>
        <line style="stroke:#000000;stroke-width:1.0;" x1="6" x2="93" y1="80.875" y2="80.875"></line>
        <line style="stroke:#000000;stroke-width:1.0;" x1="93" x2="173" y1="80.875" y2="80.875"></line>
        <line style="stroke:#000000;stroke-width:1.0;" x1="6" x2="6" y1="12.9844" y2="37.9375"></line>
        <line style="stroke:#000000;stroke-width:1.0;" x1="173" x2="173" y1="55.9063" y2="80.875"></line>
        <line style="stroke:#000000;stroke-width:1.0;" x1="173" x2="173" y1="37.9375" y2="55.9063"></line>
        <line style="stroke:#000000;stroke-width:1.0;" x1="173" x2="173" y1="12.9844" y2="37.9375"></line>
        <line style="stroke:#000000;stroke-width:1.0;" x1="6" x2="6" y1="55.9063" y2="80.875"></line>
        <line style="stroke:#000000;stroke-width:1.0;" x1="6" x2="6" y1="37.9375" y2="55.9063"></line>
        <rect fill="#FFFFFF" height="13.9688" style="stroke:#FFFFFF;stroke-width:1.0;" width="85" x="12" y="6"></rect>
        <text fill="#000000" font-family="sans-serif" font-size="12" lengthAdjust="spacing" textLength="85" x="12"
            y="17.1387">Se Connecter</text><text fill="#000000" font-family="sans-serif" font-size="12"
            lengthAdjust="spacing" textLength="28" x="7" y="122.9512">Nom</text><text fill="#000000"
            font-family="sans-serif" font-size="12" lengthAdjust="spacing" textLength="28" x="197"
            y="122.9512">Nom</text>
        <line style="stroke:#000000;stroke-width:1.0;" x1="195" x2="246" y1="125.7813" y2="125.7813"></line>
        <line style="stroke:#000000;stroke-width:1.0;" x1="195" x2="195" y1="122.7813" y2="124.7813"></line>
        <line style="stroke:#000000;stroke-width:1.0;" x1="246" x2="246" y1="122.7813" y2="124.7813"></line><text
            fill="#000000" font-family="sans-serif" font-size="12" lengthAdjust="spacing" textLength="33" x="7"
            y="140.9199">Email</text><text fill="#000000" font-family="sans-serif" font-size="12" lengthAdjust="spacing"
            textLength="33" x="197" y="140.9199">Email</text>
        <line style="stroke:#000000;stroke-width:1.0;" x1="195" x2="262" y1="143.75" y2="143.75"></line>
        <line style="stroke:#000000;stroke-width:1.0;" x1="195" x2="195" y1="140.75" y2="142.75"></line>
        <line style="stroke:#000000;stroke-width:1.0;" x1="262" x2="262" y1="140.75" y2="142.75"></line><text
            fill="#000000" font-family="sans-serif" font-size="12" lengthAdjust="spacing" textLength="85" x="7"
            y="158.8887">Mot de Passe</text><text fill="#000000" font-family="sans-serif" font-size="12"
            lengthAdjust="spacing" textLength="24" x="197" y="158.8887">****</text>
        <line style="stroke:#000000;stroke-width:1.0;" x1="195" x2="270" y1="161.7188" y2="161.7188"></line>
        <line style="stroke:#000000;stroke-width:1.0;" x1="195" x2="195" y1="158.7188" y2="160.7188"></line>
        <line style="stroke:#000000;stroke-width:1.0;" x1="270" x2="270" y1="158.7188" y2="160.7188"></line><text
            fill="#000000" font-family="sans-serif" font-size="12" lengthAdjust="spacing" textLength="185" x="7"
            y="176.8574">Confirmez votre Mot de Passe</text><text fill="#000000" font-family="sans-serif" font-size="12"
            lengthAdjust="spacing" textLength="24" x="197" y="176.8574">****</text>
        <line style="stroke:#000000;stroke-width:1.0;" x1="195" x2="270" y1="179.6875" y2="179.6875"></line>
        <line style="stroke:#000000;stroke-width:1.0;" x1="195" x2="195" y1="176.6875" y2="178.6875"></line>
        <line style="stroke:#000000;stroke-width:1.0;" x1="270" x2="270" y1="176.6875" y2="178.6875"></line><text
            fill="#000000" font-family="sans-serif" font-size="12" lengthAdjust="spacing" textLength="4" x="7"
            y="194.8262">-</text>
        <rect fill="#EEEEEE" height="17.9688" rx="5" ry="5" style="stroke:#000000;stroke-width:2.5;" width="60"
            x="196.5" y="186.1875"></rect><text fill="#000000" font-family="sans-serif" font-size="12"
            lengthAdjust="spacing" textLength="16" x="218.5" y="199.3262">OK</text>
        <line style="stroke:#000000;stroke-width:1.0;" x1="6" x2="193" y1="103.8281" y2="103.8281"></line>
        <line style="stroke:#000000;stroke-width:1.0;" x1="193" x2="273" y1="103.8281" y2="103.8281"></line>
        <line style="stroke:#000000;stroke-width:1.0;" x1="6" x2="193" y1="207.6563" y2="207.6563"></line>
        <line style="stroke:#000000;stroke-width:1.0;" x1="193" x2="273" y1="207.6563" y2="207.6563"></line>
        <line style="stroke:#000000;stroke-width:1.0;" x1="6" x2="6" y1="103.8281" y2="128.7813"></line>
        <line style="stroke:#000000;stroke-width:1.0;" x1="273" x2="273" y1="146.75" y2="164.7188"></line>
        <line style="stroke:#000000;stroke-width:1.0;" x1="273" x2="273" y1="128.7813" y2="146.75"></line>
        <line style="stroke:#000000;stroke-width:1.0;" x1="273" x2="273" y1="103.8281" y2="128.7813"></line>
        <line style="stroke:#000000;stroke-width:1.0;" x1="6" x2="6" y1="182.6875" y2="207.6563"></line>
        <line style="stroke:#000000;stroke-width:1.0;" x1="6" x2="6" y1="164.7188" y2="182.6875"></line>
        <line style="stroke:#000000;stroke-width:1.0;" x1="6" x2="6" y1="146.75" y2="164.7188"></line>
        <line style="stroke:#000000;stroke-width:1.0;" x1="273" x2="273" y1="182.6875" y2="207.6563"></line>
        <line style="stroke:#000000;stroke-width:1.0;" x1="6" x2="6" y1="128.7813" y2="146.75"></line>
        <line style="stroke:#000000;stroke-width:1.0;" x1="273" x2="273" y1="164.7188" y2="182.6875"></line>
        <rect fill="#FFFFFF" height="13.9688" style="stroke:#FFFFFF;stroke-width:1.0;" width="249" x="12" y="96.8438">
        </rect><text fill="#000000" font-family="sans-serif" font-size="12" lengthAdjust="spacing" textLength="249"
            x="12" y="107.9824">Pas encore de compte Enregistrez vous</text>
        <!--SRC=[fL1DJy904BtlhvZq12OGMj1eJqI-4g12vEDYD5dReTcadIMxqoOA_7TtKI9dVQUTVJDlvhs-PMdOoeB5GHpUWXN2G1DXocW20J0gfIhW1qS8BhNd4isG8IobjUYv6uTpdoTRS8KZl00iPkxrAav-ZPi1f5GRz0gfBlUCC2A3kR9iy1DgNLalywJBQvdWk_xNPSxVJfdolCJj-hEDa-WZPUVenBAGn9ja3ZKQgpH1s8uwKRSTHesnKR186Q8EXDsuzn3Vzc2IhC7pJT6OBETWTMLIbuJthjuhTW9DCPMrXEUAM9KOmsAFD1tEBXykgrePJIKIY-as-MsuwxKU5SCAZJi5jeaOuavM1Rk9L6UAyXWswt7hNimbvPNCdJQI66YdQpuSj_e2]-->
    </g>
</svg>